<mxfile host="app.diagrams.net" modified="2022-07-29T07:39:28.717Z" agent="5.0 (Macintosh; Intel Mac OS X 10_15_7) AppleWebKit/537.36 (KHTML, like Gecko) Chrome/103.0.0.0 Safari/537.36" etag="gOiDCh3Sv457fQu_pc9t" version="20.2.0" type="github">
  <diagram id="ODyeSF8Z4dnJrhiTriCb" name="Page-1">
    <mxGraphModel dx="1426" dy="801" grid="1" gridSize="10" guides="1" tooltips="1" connect="1" arrows="1" fold="1" page="1" pageScale="1" pageWidth="827" pageHeight="1169" math="0" shadow="0">
      <root>
        <mxCell id="0" />
        <mxCell id="1" parent="0" />
        <mxCell id="kEgYnRdfttSI0SWff6e3-3" value="" style="edgeStyle=orthogonalEdgeStyle;rounded=0;orthogonalLoop=1;jettySize=auto;html=1;" edge="1" parent="1" source="kEgYnRdfttSI0SWff6e3-1" target="kEgYnRdfttSI0SWff6e3-2">
          <mxGeometry relative="1" as="geometry" />
        </mxCell>
        <mxCell id="kEgYnRdfttSI0SWff6e3-1" value="创建 netns" style="rounded=0;whiteSpace=wrap;html=1;" vertex="1" parent="1">
          <mxGeometry x="110" y="280" width="120" height="60" as="geometry" />
        </mxCell>
        <mxCell id="kEgYnRdfttSI0SWff6e3-5" value="" style="edgeStyle=orthogonalEdgeStyle;rounded=0;orthogonalLoop=1;jettySize=auto;html=1;" edge="1" parent="1" source="kEgYnRdfttSI0SWff6e3-2" target="kEgYnRdfttSI0SWff6e3-4">
          <mxGeometry relative="1" as="geometry" />
        </mxCell>
        <mxCell id="kEgYnRdfttSI0SWff6e3-2" value="准备 dpdk" style="rounded=0;whiteSpace=wrap;html=1;" vertex="1" parent="1">
          <mxGeometry x="280" y="280" width="120" height="60" as="geometry" />
        </mxCell>
        <mxCell id="kEgYnRdfttSI0SWff6e3-7" value="" style="edgeStyle=orthogonalEdgeStyle;rounded=0;orthogonalLoop=1;jettySize=auto;html=1;entryX=0;entryY=0.5;entryDx=0;entryDy=0;" edge="1" parent="1" source="kEgYnRdfttSI0SWff6e3-4" target="kEgYnRdfttSI0SWff6e3-10">
          <mxGeometry relative="1" as="geometry">
            <mxPoint x="646" y="180" as="targetPoint" />
          </mxGeometry>
        </mxCell>
        <mxCell id="kEgYnRdfttSI0SWff6e3-4" value="配置路由等网络设置" style="rounded=0;whiteSpace=wrap;html=1;" vertex="1" parent="1">
          <mxGeometry x="450" y="280" width="120" height="60" as="geometry" />
        </mxCell>
        <mxCell id="kEgYnRdfttSI0SWff6e3-9" style="edgeStyle=orthogonalEdgeStyle;rounded=0;orthogonalLoop=1;jettySize=auto;html=1;exitX=0.5;exitY=1;exitDx=0;exitDy=0;entryX=0.5;entryY=0;entryDx=0;entryDy=0;startArrow=classic;startFill=1;endArrow=none;endFill=0;" edge="1" parent="1" source="kEgYnRdfttSI0SWff6e3-6" target="kEgYnRdfttSI0SWff6e3-4">
          <mxGeometry relative="1" as="geometry">
            <mxPoint x="680" y="280" as="targetPoint" />
          </mxGeometry>
        </mxCell>
        <mxCell id="kEgYnRdfttSI0SWff6e3-12" style="edgeStyle=orthogonalEdgeStyle;rounded=0;orthogonalLoop=1;jettySize=auto;html=1;exitX=1;exitY=0.5;exitDx=0;exitDy=0;entryX=0;entryY=0.5;entryDx=0;entryDy=0;startArrow=none;startFill=0;endArrow=classic;endFill=1;" edge="1" parent="1" source="kEgYnRdfttSI0SWff6e3-6" target="kEgYnRdfttSI0SWff6e3-10">
          <mxGeometry relative="1" as="geometry" />
        </mxCell>
        <mxCell id="kEgYnRdfttSI0SWff6e3-6" value="（optional）&lt;br&gt;添加虚拟设备" style="rounded=0;whiteSpace=wrap;html=1;dashed=1;" vertex="1" parent="1">
          <mxGeometry x="450" y="180" width="120" height="60" as="geometry" />
        </mxCell>
        <mxCell id="kEgYnRdfttSI0SWff6e3-10" value="启动 dpdk service&lt;br&gt;暴露配置项" style="rounded=0;whiteSpace=wrap;html=1;" vertex="1" parent="1">
          <mxGeometry x="616" y="280" width="120" height="60" as="geometry" />
        </mxCell>
      </root>
    </mxGraphModel>
  </diagram>
</mxfile>
